<?xml version="1.0" standalone="no"?>
<!DOCTYPE svg PUBLIC "-//W3C//DTD SVG 20010904//EN"
 "http://www.w3.org/TR/2001/REC-SVG-20010904/DTD/svg10.dtd">
<svg version="1.0" xmlns="http://www.w3.org/2000/svg"
 width="251.000000pt" height="200.000000pt" viewBox="0 0 251.000000 200.000000"
 preserveAspectRatio="xMidYMid meet">

<g transform="translate(0.000000,200.000000) scale(0.100000,-0.100000)"
fill="#000000" stroke="none">
<path d="M1572 1784 c-19 -10 -41 -32 -50 -51 -15 -31 -14 -39 3 -104 l18 -71
-23 -21 c-16 -15 -24 -18 -27 -9 -8 20 -43 14 -43 -8 0 -18 -26 -40 -49 -40
-6 0 -11 7 -11 15 0 8 -9 15 -20 15 -15 0 -20 -7 -20 -25 0 -19 -10 -30 -42
-46 -24 -12 -56 -24 -73 -26 -16 -2 -32 -8 -33 -13 -2 -6 -12 -15 -23 -20 -15
-8 -19 -7 -19 5 0 8 7 15 15 15 9 0 15 9 15 24 0 19 -4 23 -19 19 -16 -4 -23
3 -35 32 -23 54 -21 60 24 78 67 26 88 116 44 185 -12 18 -23 22 -67 22 -28 0
-58 -4 -66 -9 -9 -6 -18 -42 -25 -98 l-11 -88 -52 -6 c-75 -9 -227 -103 -268
-165 -18 -27 -18 -29 3 -66 27 -46 28 -58 2 -58 -14 0 -20 -7 -20 -24 0 -17
-7 -26 -25 -30 -35 -9 -35 -46 0 -46 20 0 25 -5 25 -26 0 -21 3 -24 21 -19 20
7 20 7 2 -21 -17 -27 -18 -28 -21 -6 -4 23 -10 26 -36 16 -24 -9 -20 -44 4
-44 11 0 20 -3 20 -6 0 -15 -65 -96 -105 -131 -42 -38 -50 -41 -137 -51 -51
-6 -115 -20 -143 -31 -27 -11 -71 -22 -98 -26 -45 -6 -49 -9 -72 -55 -14 -27
-25 -57 -25 -67 0 -14 5 -12 28 9 57 54 142 81 321 103 116 14 134 19 235 67
l108 53 95 -50 c96 -51 155 -105 145 -135 -10 -32 -36 -49 -85 -55 -29 -3 -84
-15 -122 -25 -39 -10 -105 -22 -147 -26 -76 -7 -77 -7 -107 -49 -33 -46 -55
-95 -43 -95 4 0 37 15 72 34 67 36 176 62 215 52 14 -4 28 0 35 9 6 7 18 11
25 8 20 -7 155 17 188 34 16 8 31 13 33 10 10 -10 43 -116 49 -160 l8 -49
-144 4 c-79 1 -274 1 -434 -1 -229 -3 -270 -6 -195 -12 52 -4 364 -7 693 -8
391 -1 605 -5 618 -11 10 -6 19 -21 19 -34 l0 -23 -212 -6 c-116 -4 -302 -8
-412 -8 -111 -1 -266 -5 -346 -9 -100 -4 11 -7 360 -9 533 -2 637 -8 682 -41
31 -23 68 -26 68 -6 0 23 27 28 173 33 76 3 136 7 134 9 -2 2 -71 9 -153 14
-158 11 -209 21 -218 46 -10 27 1 31 91 40 80 7 84 8 48 15 -22 4 -61 8 -87 8
-25 1 -53 4 -62 7 -9 3 -25 37 -36 78 -50 171 -61 197 -117 262 -30 35 -75 78
-101 95 -84 56 -122 99 -122 136 0 27 11 44 63 96 35 34 72 76 84 92 17 24 24
28 34 18 25 -25 312 -7 358 21 13 8 15 52 3 60 -5 3 -33 -1 -63 -9 -30 -8 -93
-15 -141 -15 l-88 0 0 30 c0 20 5 30 15 30 9 0 15 9 15 24 0 19 -4 23 -20 19
-17 -5 -20 0 -20 26 0 24 4 31 20 31 14 0 20 7 20 24 0 19 -4 22 -24 19 -21
-4 -24 -2 -19 16 3 11 20 32 38 46 26 19 35 35 41 70 8 58 -3 128 -24 155 -24
29 -87 36 -130 14z m-712 -407 c0 -26 -21 -87 -30 -87 -10 0 -40 52 -40 69 0
13 52 41 62 34 5 -2 8 -10 8 -16z m456 -80 c19 7 18 -17 -2 -45 -20 -29 -32
-28 -26 3 5 31 -25 36 -36 5 -5 -15 -11 -17 -22 -9 -11 8 -12 12 -2 16 6 2 12
13 12 23 0 11 11 22 28 28 22 7 28 6 30 -9 2 -11 9 -16 18 -12z m-536 -58 c0
-5 -7 -9 -15 -9 -9 0 -15 -9 -15 -25 0 -31 29 -34 37 -5 3 11 9 20 14 20 18 0
9 -28 -18 -56 -23 -25 -28 -26 -31 -11 -2 10 -13 17 -28 17 -35 0 -34 47 1 56
16 4 25 13 25 26 0 17 3 18 15 8 8 -7 15 -16 15 -21z m285 -8 c-22 -44 -35
-291 -14 -291 30 0 41 20 50 91 5 40 19 94 32 119 23 48 25 48 105 35 41 -7
41 -23 -3 -77 -41 -51 -61 -89 -74 -143 -12 -44 -65 -135 -80 -135 -5 0 -12 8
-15 18 -3 9 -40 55 -81 102 -41 47 -75 91 -75 98 0 32 29 81 52 84 17 2 24 10
26 30 2 20 10 30 28 34 18 5 24 13 24 34 0 19 6 30 18 32 25 6 25 3 7 -31z
m317 -415 c29 -18 78 -46 108 -61 98 -49 117 -68 130 -132 7 -32 23 -78 36
-102 13 -24 24 -50 24 -57 0 -23 -47 -27 -234 -20 -141 5 -184 10 -197 22 -24
22 -57 102 -73 180 l-14 68 41 38 c23 21 56 51 72 67 17 17 36 30 42 31 7 0
36 -15 65 -34z"/>
<path d="M1750 1570 c0 -13 7 -20 20 -20 13 0 20 7 20 20 0 13 -7 20 -20 20
-13 0 -20 -7 -20 -20z"/>
<path d="M1850 1570 c0 -13 7 -20 20 -20 13 0 20 7 20 20 0 13 -7 20 -20 20
-13 0 -20 -7 -20 -20z"/>
<path d="M1940 1566 c0 -21 -5 -26 -25 -26 -18 0 -25 -5 -25 -20 0 -15 7 -20
25 -20 18 0 25 5 25 20 0 15 7 20 25 20 18 0 25 5 25 20 0 11 -4 20 -9 20 -5
0 -16 3 -25 6 -12 5 -16 0 -16 -20z"/>
<path d="M2040 1540 c0 -11 4 -20 9 -20 5 0 16 -3 25 -6 12 -5 16 0 16 20 0
21 -5 26 -25 26 -18 0 -25 -5 -25 -20z"/>
<path d="M1800 1525 c0 -18 5 -25 20 -25 15 0 20 7 20 25 0 18 -5 25 -20 25
-15 0 -20 -7 -20 -25z"/>
<path d="M1700 1515 c0 -27 1 -28 24 -19 24 9 20 44 -4 44 -15 0 -20 -7 -20
-25z"/>
<path d="M1992 1508 c4 -30 48 -39 48 -10 0 18 -18 32 -42 32 -5 0 -8 -10 -6
-22z"/>
<path d="M2140 1510 c0 -16 26 -40 44 -40 15 0 4 40 -13 50 -27 14 -31 13 -31
-10z"/>
<path d="M1768 1493 c-25 -6 -23 -43 2 -43 15 0 20 7 20 25 0 14 -1 24 -2 24
-2 -1 -11 -3 -20 -6z"/>
<path d="M1850 1475 c0 -18 5 -25 20 -25 24 0 28 35 4 44 -23 9 -24 8 -24 -19z"/>
<path d="M2092 1480 c1 -13 13 -27 26 -31 19 -7 22 -5 22 16 0 14 -4 25 -9 25
-5 0 -17 3 -26 6 -13 5 -16 2 -13 -16z"/>
<path d="M1940 1465 c0 -20 -5 -25 -25 -25 -18 0 -25 -5 -25 -20 0 -15 7 -20
25 -20 18 0 25 5 25 20 0 15 7 20 25 20 29 0 36 34 9 44 -27 10 -34 7 -34 -19z"/>
<path d="M1257 1473 c-4 -3 -7 -15 -7 -25 0 -28 34 -19 38 10 3 21 -16 31 -31
15z"/>
<path d="M2240 1461 c0 -11 10 -27 23 -36 21 -15 22 -14 25 6 2 11 -4 27 -15
34 -25 20 -33 18 -33 -4z"/>
<path d="M2040 1440 c0 -11 4 -20 9 -20 5 0 16 -3 25 -6 12 -5 16 0 16 20 0
21 -5 26 -25 26 -18 0 -25 -5 -25 -20z"/>
<path d="M2190 1436 c0 -15 9 -27 25 -34 23 -11 25 -9 25 12 0 15 -9 27 -25
34 -23 11 -25 9 -25 -12z"/>
<path d="M1800 1425 c0 -18 5 -25 20 -25 15 0 20 7 20 25 0 18 -5 25 -20 25
-15 0 -20 -7 -20 -25z"/>
<path d="M1700 1415 c0 -27 1 -28 24 -19 24 9 20 44 -4 44 -15 0 -20 -7 -20
-25z"/>
<path d="M1992 1408 c4 -30 48 -39 48 -10 0 18 -18 32 -42 32 -5 0 -8 -10 -6
-22z"/>
<path d="M2140 1410 c0 -16 26 -40 44 -40 15 0 4 40 -13 50 -27 14 -31 13 -31
-10z"/>
<path d="M150 1396 c0 -15 9 -27 25 -34 23 -11 25 -9 25 12 0 15 -9 27 -25 34
-23 11 -25 9 -25 -12z"/>
<path d="M100 1378 c0 -17 8 -29 26 -37 23 -10 25 -9 22 10 -2 12 -13 28 -25
37 -22 14 -23 13 -23 -10z"/>
<path d="M1763 1393 c-21 -8 -15 -43 7 -43 15 0 20 7 20 25 0 25 -4 28 -27 18z"/>
<path d="M1850 1376 c0 -20 5 -26 21 -26 15 0 20 5 17 22 -5 34 -38 37 -38 4z"/>
<path d="M2092 1380 c1 -13 13 -27 26 -31 19 -7 22 -5 22 16 0 14 -4 25 -9 25
-5 0 -17 3 -26 6 -13 5 -16 2 -13 -16z"/>
<path d="M1940 1365 c0 -20 5 -25 25 -25 29 0 36 34 9 44 -27 10 -34 7 -34
-19z"/>
<path d="M2240 1361 c0 -11 10 -27 23 -36 21 -15 22 -14 25 6 2 11 -4 27 -15
34 -25 20 -33 18 -33 -4z"/>
<path d="M250 1345 c0 -14 4 -25 9 -25 5 0 17 -3 26 -6 13 -5 16 -2 13 16 -1
13 -13 27 -25 31 -20 7 -23 5 -23 -16z"/>
<path d="M2046 1362 c-10 -9 -7 -42 3 -42 5 0 16 -3 25 -6 12 -5 16 0 16 19 0
23 -30 43 -44 29z"/>
<path d="M2190 1336 c0 -15 9 -27 25 -34 23 -11 25 -9 25 12 0 15 -9 27 -25
34 -23 11 -25 9 -25 -12z"/>
<path d="M200 1320 c0 -16 26 -40 44 -40 15 0 4 40 -13 50 -27 14 -31 13 -31
-10z"/>
<path d="M350 1310 c0 -11 4 -20 9 -20 5 0 16 -3 25 -6 12 -5 16 0 16 20 0 21
-5 26 -25 26 -18 0 -25 -5 -25 -20z"/>
<path d="M2140 1310 c0 -16 26 -40 44 -40 15 0 4 40 -13 50 -27 14 -31 13 -31
-10z"/>
<path d="M150 1296 c0 -15 9 -27 25 -34 23 -11 25 -9 25 12 0 15 -9 27 -25 34
-23 11 -25 9 -25 -12z"/>
<path d="M450 1294 c0 -19 -5 -24 -25 -24 -18 0 -25 -5 -25 -19 0 -12 9 -21
25 -25 18 -5 25 -13 25 -31 0 -20 -5 -25 -25 -25 -18 0 -25 -5 -25 -19 0 -12
9 -21 25 -25 18 -5 25 -13 25 -31 0 -20 5 -25 25 -25 33 0 35 37 3 42 -17 2
-24 11 -26 31 -3 23 0 27 22 27 34 0 37 37 4 42 -17 2 -24 11 -26 31 -3 23 0
27 22 27 36 0 36 36 1 42 -21 4 -25 1 -25 -18z"/>
<path d="M668 1313 c-29 -7 -23 -43 7 -43 20 0 25 5 25 25 0 25 -1 26 -32 18z"/>
<path d="M550 1285 c0 -20 -5 -25 -25 -25 -18 0 -25 -5 -25 -20 0 -13 9 -22
25 -26 18 -4 25 -13 25 -30 0 -19 -5 -24 -25 -24 -31 0 -35 -35 -6 -43 23 -6
31 0 31 24 0 11 9 19 23 21 14 2 23 11 25 25 2 15 13 25 28 29 34 9 33 44 -1
44 -20 0 -25 -5 -25 -25 0 -20 -5 -25 -25 -25 -34 0 -37 47 -2 52 14 2 23 11
25 26 3 18 -1 22 -22 22 -21 0 -26 -5 -26 -25z"/>
<path d="M100 1278 c0 -17 8 -29 26 -37 23 -10 25 -9 22 10 -2 12 -13 28 -25
37 -22 14 -23 13 -23 -10z"/>
<path d="M302 1280 c1 -13 13 -27 26 -31 19 -7 22 -5 22 16 0 14 -4 25 -9 25
-5 0 -17 3 -26 6 -13 5 -16 2 -13 -16z"/>
<path d="M2240 1261 c0 -11 10 -27 23 -36 21 -15 22 -14 25 6 2 11 -4 27 -15
34 -25 20 -33 18 -33 -4z"/>
<path d="M250 1245 c0 -14 4 -25 9 -25 5 0 17 -3 26 -6 13 -5 16 -2 13 16 -1
13 -13 27 -25 31 -20 7 -23 5 -23 -16z"/>
<path d="M200 1220 c0 -16 26 -40 44 -40 15 0 4 40 -13 50 -27 14 -31 13 -31
-10z"/>
<path d="M350 1210 c0 -11 4 -20 9 -20 5 0 16 -3 25 -6 12 -5 16 0 16 20 0 21
-5 26 -25 26 -18 0 -25 -5 -25 -20z"/>
<path d="M150 1196 c0 -15 9 -27 25 -34 23 -11 25 -9 25 12 0 15 -9 27 -25 34
-23 11 -25 9 -25 -12z"/>
<path d="M302 1180 c1 -13 13 -27 26 -31 19 -7 22 -5 22 16 0 14 -4 25 -9 25
-5 0 -17 3 -26 6 -13 5 -16 2 -13 -16z"/>
<path d="M250 1145 c0 -14 4 -25 9 -25 5 0 17 -3 26 -6 13 -5 16 -2 13 16 -1
13 -13 27 -25 31 -20 7 -23 5 -23 -16z"/>
<path d="M600 1135 c0 -20 -5 -25 -25 -25 -20 0 -25 -5 -25 -26 0 -20 4 -25
22 -22 14 2 24 12 28 28 4 16 14 26 28 28 33 5 30 42 -3 42 -20 0 -25 -5 -25
-25z"/>
<path d="M350 1111 c0 -17 18 -31 41 -31 5 0 9 11 9 25 0 20 -5 25 -25 25 -18
0 -25 -5 -25 -19z"/>
<path d="M248 212 c-43 -2 -78 -7 -78 -12 0 -12 2050 -12 2095 0 17 4 26 8 20
9 -26 2 -1970 6 -2037 3z"/>
</g>
</svg>
