<?xml version="1.0" standalone="no"?>
<!DOCTYPE svg PUBLIC "-//W3C//DTD SVG 20010904//EN"
 "http://www.w3.org/TR/2001/REC-SVG-20010904/DTD/svg10.dtd">
<svg version="1.0" xmlns="http://www.w3.org/2000/svg"
 width="197.000000pt" height="78.000000pt" viewBox="0 0 197.000000 78.000000"
 preserveAspectRatio="xMidYMid meet">

<g transform="translate(0.000000,78.000000) scale(0.100000,-0.100000)"
fill="#000000" stroke="none">
<path d="M155 688 c-3 -7 -14 -58 -25 -113 -12 -55 -24 -108 -26 -117 -5 -15
1 -18 39 -18 l44 0 22 108 c12 59 25 117 28 130 5 20 2 22 -36 22 -24 0 -43
-5 -46 -12z"/>
<path d="M285 688 c-2 -7 -15 -66 -28 -130 -23 -111 -24 -118 -7 -118 13 0 20
11 25 38 3 20 12 60 18 87 10 48 11 49 18 20 4 -16 7 -49 8 -72 1 -57 9 -73
37 -73 19 0 32 16 70 86 25 47 48 84 49 82 2 -2 -5 -40 -15 -85 l-18 -83 44 0
c37 0 44 3 49 23 24 104 45 209 45 222 0 11 -12 15 -48 15 l-48 0 -39 -72 -40
-73 -9 73 -9 72 -49 0 c-30 0 -50 -5 -53 -12z"/>
<path d="M607 577 c-15 -67 -27 -126 -27 -130 0 -4 18 -7 40 -7 41 0 43 2 54
51 5 23 13 28 50 33 57 9 94 38 102 81 13 71 -19 95 -131 95 l-62 0 -26 -123z
m143 55 c0 -41 -23 -82 -46 -82 -17 0 -17 5 -3 70 8 39 15 50 30 50 15 0 19
-7 19 -38z"/>
<path d="M875 688 c-2 -7 -15 -66 -28 -130 l-25 -118 83 0 c64 0 84 3 89 15 4
12 -3 15 -34 15 -43 0 -45 4 -34 58 5 27 11 31 42 34 49 4 55 28 7 28 -36 0
-36 0 -30 33 10 46 12 47 55 47 24 0 40 5 44 15 4 13 -8 15 -80 15 -59 0 -86
-4 -89 -12z"/>
<path d="M1080 697 c0 -3 -11 -57 -25 -121 -14 -64 -25 -120 -25 -126 0 -5 18
-10 39 -10 42 0 44 2 57 73 3 20 10 37 14 37 4 0 13 -24 21 -52 14 -53 14 -53
57 -56 24 -2 42 1 42 7 0 6 -9 34 -21 63 -11 29 -16 54 -11 56 42 14 64 73 38
107 -12 17 -28 21 -100 24 -47 1 -86 1 -86 -2z m120 -53 c0 -36 -17 -64 -41
-64 -16 0 -18 5 -13 28 12 56 16 62 35 62 14 0 19 -7 19 -26z"/>
<path d="M1340 696 c0 -3 -11 -56 -25 -120 -14 -64 -25 -120 -25 -126 0 -5 18
-10 40 -10 33 0 41 4 45 23 3 12 16 70 29 130 l23 107 -43 0 c-24 0 -44 -2
-44 -4z"/>
<path d="M1469 593 c-72 -154 -72 -153 -50 -153 11 0 24 12 31 30 11 26 18 30
51 30 36 0 40 -3 46 -30 5 -28 9 -30 49 -30 25 0 44 5 44 11 0 19 -21 203 -26
227 -4 19 -11 22 -49 22 l-45 0 -51 -107z m70 -35 c1 -25 -3 -28 -30 -28 -21
0 -30 4 -26 13 3 6 13 32 23 57 l19 45 6 -30 c4 -16 7 -42 8 -57z"/>
<path d="M1715 688 c-2 -7 -15 -66 -28 -130 l-25 -118 83 0 c64 0 84 3 89 15
4 12 -3 15 -34 15 -47 0 -47 0 -20 120 26 114 27 110 -20 110 -24 0 -42 -5
-45 -12z"/>
<path d="M260 355 c0 -13 86 -15 715 -15 629 0 715 2 715 15 0 13 -86 15 -715
15 -629 0 -715 -2 -715 -15z"/>
<path d="M150 185 l0 -75 53 2 c50 1 50 2 10 5 -40 4 -43 6 -43 33 0 26 4 29
38 33 l37 4 -37 1 c-35 2 -38 4 -38 31 0 28 3 30 43 34 40 3 40 4 -10 5 l-53
2 0 -75z"/>
<path d="M1093 185 c0 -44 2 -61 4 -37 2 23 2 59 0 80 -2 20 -4 1 -4 -43z"/>
<path d="M741 238 c0 -10 -7 -18 -13 -18 -10 0 -10 -2 -1 -8 6 -4 13 -28 15
-52 3 -40 6 -45 27 -45 13 0 27 7 29 15 4 13 3 13 -11 2 -24 -20 -37 -6 -37
38 0 35 3 39 28 43 l27 4 -27 2 c-16 0 -28 8 -31 19 -4 16 -5 16 -6 0z"/>
<path d="M295 203 c4 -10 12 -31 17 -48 12 -32 25 -51 32 -44 12 12 44 109 37
109 -5 0 -15 -17 -21 -37 -18 -57 -26 -59 -40 -9 -7 26 -17 46 -22 46 -6 0 -7
-8 -3 -17z"/>
<path d="M444 195 c-19 -28 -11 -60 18 -76 22 -12 68 -4 68 11 0 6 -10 5 -25
-2 -19 -8 -28 -8 -40 2 -25 21 -17 30 25 30 44 0 52 16 24 44 -23 23 -51 20
-70 -9z m62 -2 c17 -17 16 -18 -15 -21 -40 -4 -48 2 -31 23 16 19 25 19 46 -2z"/>
<path d="M580 164 c0 -30 5 -54 10 -54 6 0 10 17 10 39 0 79 56 77 63 -2 3
-39 4 -38 5 11 1 28 -1 53 -5 53 -5 1 -25 3 -45 4 l-38 2 0 -53z"/>
<path d="M930 143 c0 -42 4 -73 10 -73 6 0 10 11 10 25 0 22 3 24 29 19 24 -5
32 -1 47 21 16 25 16 30 3 54 -12 21 -22 26 -57 27 l-42 1 0 -74z m78 55 c30
-30 -2 -93 -36 -71 -21 13 -27 50 -12 69 15 17 32 18 48 2z"/>
<path d="M1164 205 c-22 -16 -12 -20 16 -5 19 10 50 4 50 -11 0 -4 -18 -13
-40 -19 -46 -12 -57 -47 -17 -54 43 -7 87 -5 87 4 0 6 -4 10 -10 10 -5 0 -10
18 -10 39 0 51 -34 67 -76 36z m66 -55 c0 -18 -40 -32 -56 -20 -7 7 -11 16 -8
21 7 12 64 11 64 -1z"/>
<path d="M1312 160 c1 -50 2 -51 5 -13 3 30 10 46 24 53 29 16 39 4 39 -46 0
-24 5 -44 10 -44 15 0 12 86 -3 99 -7 6 -28 9 -45 8 l-32 -2 2 -55z"/>
<path d="M1450 164 c0 -30 5 -54 10 -54 6 0 10 20 10 44 0 78 56 71 63 -7 3
-39 4 -39 5 10 2 56 -2 60 -65 61 -21 1 -23 -4 -23 -54z"/>
<path d="M1606 204 c-34 -33 -9 -94 38 -94 13 0 29 7 36 15 14 17 0 21 -17 4
-14 -14 -53 -2 -53 17 0 10 12 14 40 14 44 0 47 5 24 38 -18 26 -46 28 -68 6z
m52 -6 c20 -20 14 -28 -25 -28 -35 0 -36 0 -18 20 21 23 27 24 43 8z"/>
<path d="M1740 163 c0 -29 5 -53 10 -53 6 0 10 20 10 44 0 50 13 65 37 44 14
-11 15 -11 11 2 -3 9 -17 15 -36 15 -32 1 -32 1 -32 -52z"/>
</g>
</svg>
